<?xml version="1.0" standalone="no"?>
<!DOCTYPE svg PUBLIC "-//W3C//DTD SVG 20010904//EN"
 "http://www.w3.org/TR/2001/REC-SVG-20010904/DTD/svg10.dtd">
<svg version="1.0" xmlns="http://www.w3.org/2000/svg"
 width="700.000000pt" height="700.000000pt" viewBox="0 0 700.000000 700.000000"
 preserveAspectRatio="xMidYMid meet">
<metadata>
Created by potrace 1.11, written by Peter Selinger 2001-2013
</metadata>
<g transform="translate(0.000000,700.000000) scale(0.100000,-0.100000)"
fill="#000000" stroke="none">
<path d="M3824 5995 c-81 -19 -253 -153 -254 -197 0 -10 -13 -33 -30 -51 -16
-19 -30 -39 -30 -44 0 -5 -11 -20 -25 -33 -14 -13 -25 -31 -26 -39 0 -9 -18
-41 -39 -71 -22 -30 -51 -71 -65 -91 -14 -20 -28 -56 -31 -80 -3 -24 -27 -87
-53 -139 -27 -52 -54 -111 -60 -131 -8 -25 -25 -46 -54 -65 -23 -15 -89 -75
-147 -134 -104 -104 -132 -144 -295 -413 -27 -45 -64 -103 -82 -128 -32 -46
-111 -198 -158 -304 -14 -33 -41 -76 -58 -95 -18 -19 -47 -54 -65 -77 -47 -62
-152 -265 -152 -295 0 -16 -17 -48 -43 -80 -24 -29 -66 -89 -93 -133 -43 -68
-69 -119 -145 -280 -15 -32 -29 -90 -20 -79 5 5 38 46 74 91 36 45 68 79 71
76 7 -7 -21 -61 -51 -97 -13 -16 -42 -63 -64 -105 -21 -42 -43 -83 -48 -91
-27 -43 -94 -202 -117 -277 -21 -68 -35 -96 -69 -132 -104 -113 -106 -115
-181 -220 -49 -67 -107 -160 -136 -216 -16 -31 -323 -353 -428 -449 -25 -22
-115 -109 -200 -193 -182 -178 -236 -225 -278 -242 -18 -8 -32 -17 -32 -22 0
-4 -21 -24 -47 -44 -73 -55 -260 -243 -277 -278 -10 -21 -11 -35 -5 -43 5 -7
7 -23 4 -37 -6 -24 -4 -26 32 -32 21 -4 56 -11 78 -16 34 -7 43 -5 63 14 18
17 27 19 40 11 9 -6 17 -17 17 -25 0 -15 37 -49 53 -49 5 0 23 -7 40 -16 31
-15 32 -15 70 23 22 21 41 44 43 51 13 41 373 404 524 527 27 22 67 56 89 76
35 30 58 48 131 101 5 4 47 38 92 76 75 62 90 70 160 86 43 10 101 27 128 38
45 18 286 95 521 167 50 15 108 27 130 26 35 -1 39 -3 36 -25 -4 -23 -3 -23
20 -8 35 23 82 26 101 6 10 -9 17 -21 17 -26 0 -17 28 -21 40 -7 6 8 18 11 26
8 8 -3 21 0 29 7 9 7 49 14 93 15 115 4 134 -8 189 -124 69 -144 143 -368 198
-601 9 -36 20 -80 26 -97 6 -18 14 -54 19 -80 5 -27 13 -65 18 -86 9 -32 7
-39 -8 -47 -30 -16 -126 -12 -140 6 -8 8 -25 14 -39 12 -31 -4 -57 -51 -66
-118 -3 -25 -2 -38 1 -30 25 59 38 79 54 83 27 7 50 -24 50 -67 0 -30 4 -38
26 -47 21 -7 31 -6 44 6 9 8 26 15 38 15 11 0 24 5 27 10 14 22 27 8 23 -25
-2 -19 -3 -35 -1 -35 1 0 16 15 33 33 19 20 33 28 38 21 13 -19 41 -23 57 -8
13 14 18 13 42 -6 14 -11 31 -31 37 -43 10 -18 21 -23 70 -25 37 -2 73 3 98
12 21 9 53 16 70 16 17 0 39 7 48 15 16 15 19 13 38 -20 22 -36 62 -49 62 -20
0 23 30 18 39 -7 9 -24 16 -25 141 -32 47 -2 92 -6 100 -9 41 -14 89 -15 94
-1 3 8 14 14 26 14 11 0 25 9 32 20 19 29 32 25 72 -22 36 -42 48 -35 21 12
-8 14 -14 34 -14 45 -1 18 1 18 19 -5 l21 -25 -7 30 c-9 39 -34 83 -52 90 -23
8 -135 -15 -154 -32 -15 -13 -20 -13 -47 0 -17 9 -31 12 -31 7 0 -5 -17 -6
-37 -3 -72 10 -103 24 -118 54 -10 19 -23 29 -38 29 -33 0 -64 25 -70 57 -3
15 -17 44 -30 64 -14 21 -28 48 -32 60 -4 13 -30 67 -57 119 -76 146 -239 512
-241 540 -2 17 4 25 18 28 11 3 35 17 53 33 19 17 44 29 60 29 27 0 85 33 130
73 12 11 22 17 22 13 0 -5 18 8 40 28 26 23 50 36 68 36 22 0 51 24 147 123
66 68 141 155 165 193 25 38 48 70 52 72 26 11 197 373 253 532 64 182 126
443 140 586 9 92 21 182 38 280 20 118 17 572 -5 724 -9 63 -17 126 -17 140 0
14 -1 43 -1 65 -2 50 -38 163 -61 190 -10 11 -23 34 -29 50 -41 104 -49 440
-14 612 2 12 14 24 27 28 41 12 72 29 112 65 22 20 65 55 95 78 30 23 77 67
104 98 l50 57 -40 37 c-33 30 -50 38 -95 44 -77 9 -117 1 -225 -43 l-96 -40
-16 31 c-55 101 -198 233 -290 267 -78 29 -177 40 -238 26z m-704 -4392 c0 -9
17 -13 50 -13 39 0 50 -4 50 -16 0 -8 13 -32 29 -52 45 -57 209 -393 262 -537
12 -33 25 -64 29 -70 4 -5 18 -47 30 -92 21 -77 21 -82 5 -107 -20 -30 -65
-35 -85 -11 -7 9 -19 14 -25 11 -17 -6 -105 14 -105 25 0 5 -18 18 -40 29 -41
21 -42 23 -118 190 -21 48 -77 215 -142 425 -30 100 -61 237 -56 250 6 17 116
-14 116 -32z"/>
</g>
</svg>
