<?xml version="1.0" standalone="no"?>
<!DOCTYPE svg PUBLIC "-//W3C//DTD SVG 20010904//EN"
 "http://www.w3.org/TR/2001/REC-SVG-20010904/DTD/svg10.dtd">
<svg version="1.0" xmlns="http://www.w3.org/2000/svg"
 width="2811.000000pt" height="2811.000000pt" viewBox="0 0 2811.000000 2811.000000"
 preserveAspectRatio="xMidYMid meet">
<metadata>
Created by potrace 1.11, written by Peter Selinger 2001-2013
</metadata>
<g transform="translate(0.000000,2811.000000) scale(0.100000,-0.100000)"
fill="#000000" stroke="none">
<path d="M22388 23975 c-2 -1 -30 -5 -63 -8 -86 -8 -269 -36 -345 -52 -98 -21
-99 -21 -155 -40 -27 -9 -73 -30 -101 -45 -29 -16 -80 -36 -114 -45 -35 -9
-93 -31 -129 -50 -36 -18 -102 -45 -146 -60 -44 -15 -141 -58 -215 -94 -103
-50 -147 -78 -185 -117 -29 -29 -78 -64 -115 -82 -80 -38 -156 -112 -172 -166
-16 -52 -60 -93 -171 -159 -101 -60 -137 -91 -168 -146 -24 -41 -84 -90 -185
-150 -86 -50 -99 -64 -113 -116 -11 -44 -52 -92 -146 -171 -33 -28 -98 -89
-145 -135 -76 -75 -133 -120 -374 -292 -49 -34 -71 -58 -82 -85 -7 -20 -28
-63 -44 -94 -23 -42 -32 -74 -34 -120 -4 -74 -12 -95 -61 -168 -29 -43 -152
-189 -185 -220 -3 -3 -32 -36 -65 -75 -33 -38 -62 -72 -65 -75 -11 -10 -158
-207 -183 -245 -59 -89 -134 -195 -167 -234 -49 -59 -109 -93 -283 -162 -199
-79 -273 -119 -757 -408 -135 -80 -249 -148 -255 -150 -13 -6 -261 -169 -305
-202 -157 -115 -196 -144 -200 -149 -3 -4 -36 -33 -75 -65 -38 -32 -77 -65
-86 -74 -15 -15 -268 -255 -368 -350 -183 -173 -388 -371 -577 -558 -206 -203
-366 -356 -509 -484 -106 -96 -277 -273 -307 -319 -17 -25 -58 -72 -92 -105
-35 -33 -118 -132 -184 -220 -67 -88 -134 -175 -149 -194 -110 -134 -174 -214
-208 -261 -22 -30 -45 -61 -52 -68 -7 -7 -13 -17 -13 -21 0 -11 -90 -101 -101
-101 -34 0 -356 -227 -502 -353 -49 -43 -115 -95 -146 -116 -31 -21 -81 -67
-111 -102 -30 -34 -75 -81 -99 -103 -39 -37 -153 -165 -271 -307 -44 -53 -129
-149 -141 -159 -3 -3 -31 -38 -61 -79 -54 -70 -66 -100 -108 -250 -15 -56 -52
-92 -229 -221 -234 -170 -404 -321 -701 -620 -177 -178 -340 -356 -379 -413
-8 -12 -17 -24 -20 -27 -29 -26 -182 -212 -195 -237 -9 -18 -33 -48 -53 -65
-19 -18 -44 -52 -54 -76 -17 -39 -56 -98 -86 -130 -21 -22 -138 -260 -131
-267 9 -10 55 17 133 79 39 31 126 96 195 145 151 108 324 236 444 328 138
106 126 100 141 80 7 -10 10 -27 8 -38 -9 -33 -189 -204 -249 -236 -83 -45
-240 -198 -377 -367 -232 -288 -281 -342 -343 -371 -44 -21 -59 -34 -70 -63
-28 -69 -48 -102 -97 -154 -26 -29 -63 -77 -83 -106 -19 -30 -44 -64 -55 -75
-84 -89 -409 -581 -409 -620 0 -27 -115 -238 -159 -293 -41 -50 -77 -78 -200
-155 -83 -52 -199 -124 -258 -161 -59 -37 -133 -82 -163 -100 -30 -18 -73 -49
-96 -70 -22 -20 -61 -46 -85 -56 -25 -11 -52 -26 -60 -33 -8 -8 -53 -43 -99
-78 -47 -35 -112 -92 -145 -125 -33 -33 -82 -75 -108 -93 -27 -18 -65 -48 -85
-66 -20 -19 -64 -58 -97 -87 -157 -137 -212 -188 -405 -374 -59 -55 -140 -129
-180 -164 -41 -34 -104 -98 -140 -141 -36 -42 -96 -102 -134 -132 -38 -30 -80
-64 -95 -77 -55 -49 -150 -112 -261 -172 -63 -34 -136 -78 -162 -96 -26 -19
-83 -51 -126 -73 -96 -47 -176 -97 -260 -163 -35 -27 -102 -70 -150 -96 -48
-27 -112 -64 -142 -83 -30 -20 -118 -71 -195 -115 -77 -43 -198 -118 -270
-166 -71 -49 -148 -93 -170 -99 -22 -6 -62 -28 -90 -48 -106 -79 -284 -199
-307 -206 -48 -15 -118 -51 -253 -131 -77 -45 -197 -111 -265 -146 -69 -36
-170 -93 -225 -127 -55 -34 -106 -65 -113 -69 -7 -4 -72 -46 -145 -93 -73 -47
-172 -108 -221 -135 -48 -27 -96 -54 -105 -59 -224 -139 -616 -367 -806 -470
-49 -26 -112 -60 -140 -75 -99 -54 -462 -237 -551 -278 -50 -23 -110 -44 -134
-47 -135 -17 -227 -55 -324 -134 -42 -34 -110 -78 -153 -97 -43 -19 -103 -48
-133 -63 -30 -16 -93 -44 -140 -62 -47 -18 -173 -84 -280 -145 -107 -61 -215
-122 -240 -136 -25 -14 -85 -49 -135 -78 -49 -29 -110 -64 -135 -78 -25 -14
-64 -38 -87 -53 -23 -16 -45 -29 -48 -29 -10 0 -287 -183 -373 -247 -121 -90
-232 -214 -240 -270 -2 -19 6 -24 57 -39 33 -9 62 -23 66 -32 6 -17 -16 -57
-49 -87 -32 -29 -37 -51 -18 -68 22 -20 119 -44 207 -51 236 -21 295 -29 342
-47 42 -16 204 -30 363 -33 72 -1 77 1 110 31 19 18 60 43 90 55 30 12 64 27
75 35 11 7 31 13 44 13 31 0 105 -35 154 -73 l37 -29 -21 -34 c-11 -18 -18
-38 -15 -43 4 -5 32 -15 63 -21 31 -7 70 -20 87 -29 55 -31 139 -58 231 -76
50 -9 128 -27 175 -41 47 -14 125 -28 175 -31 l90 -5 70 51 c63 47 190 115
287 155 25 10 43 27 57 54 11 22 40 56 63 76 112 94 346 266 361 266 3 0 76
48 163 106 87 59 184 119 216 134 32 15 68 40 79 54 28 36 184 140 234 156 22
7 65 32 95 55 30 23 116 77 190 120 74 42 176 103 225 134 128 82 276 167 305
176 22 6 176 87 220 115 56 36 259 150 435 245 65 36 220 113 428 215 49 24
105 58 125 76 22 20 77 49 132 70 90 35 168 74 445 220 66 34 170 85 230 112
61 27 139 63 175 80 36 16 107 48 159 71 51 23 105 51 120 61 24 18 221 100
239 100 4 0 41 20 82 45 41 24 120 64 175 87 55 23 195 90 311 149 206 105
323 150 414 163 25 3 70 10 100 16 30 5 71 11 90 14 80 11 136 19 150 21 9 2
43 6 75 10 94 11 107 13 160 20 60 8 322 60 430 85 28 6 57 13 65 15 8 2 87
19 175 38 229 51 365 78 460 92 22 4 47 8 55 10 8 2 31 7 50 10 107 18 267 46
280 50 8 2 35 7 60 10 25 4 149 27 275 51 127 25 241 47 255 49 26 3 67 11
110 20 14 3 39 8 55 10 17 3 66 12 110 20 44 8 96 17 115 20 34 5 175 31 215
39 40 8 441 97 480 106 22 5 54 12 70 15 17 2 53 9 80 15 42 9 271 51 355 65
14 2 68 11 120 20 52 9 109 18 125 21 17 2 41 6 55 9 14 2 45 7 70 10 25 4 61
9 80 12 19 3 60 5 90 5 210 -5 331 -11 349 -17 26 -8 26 -27 1 -79 -11 -23
-17 -51 -14 -63 l6 -22 82 31 c248 93 314 108 380 85 31 -11 48 -11 85 -2 107
27 105 28 169 -19 32 -24 75 -49 95 -57 34 -12 37 -16 37 -51 0 -35 2 -38 39
-48 21 -5 62 -12 92 -14 49 -3 59 1 111 36 87 58 100 61 139 32 29 -22 41 -25
78 -20 25 3 56 14 70 23 14 10 31 18 36 20 124 31 118 30 219 44 45 7 95 11
111 9 62 -5 142 -4 194 3 47 7 60 5 106 -18 l52 -27 39 20 c38 19 85 22 140 8
15 -4 51 1 82 10 77 23 102 20 191 -26 58 -30 92 -41 145 -45 95 -9 110 -16
124 -62 9 -26 28 -50 64 -78 28 -22 79 -71 114 -110 64 -72 255 -316 323 -415
39 -57 288 -477 349 -590 19 -36 43 -78 52 -95 24 -43 100 -186 153 -287 25
-48 64 -129 87 -180 23 -51 55 -120 70 -153 16 -33 47 -103 69 -155 22 -53 60
-137 84 -187 74 -151 124 -282 152 -398 17 -71 35 -121 51 -142 14 -19 36 -57
49 -86 13 -30 34 -70 48 -89 14 -22 31 -71 41 -125 10 -48 32 -117 48 -153 17
-36 36 -83 43 -105 8 -22 23 -67 35 -99 25 -69 19 -81 -45 -90 -22 -3 -51 -9
-65 -13 -14 -4 -64 -8 -112 -9 -48 -2 -102 -7 -120 -11 -36 -10 -156 -9 -348
2 -123 7 -127 8 -223 55 -91 45 -104 48 -174 48 -156 0 -302 -87 -367 -217
-38 -75 -88 -231 -90 -280 -2 -48 27 -115 47 -108 12 4 13 5 66 118 49 105
131 188 209 210 73 22 159 16 224 -13 l56 -26 16 -70 c9 -39 16 -81 16 -94 0
-13 8 -50 18 -83 17 -57 20 -60 68 -78 76 -29 204 -55 261 -52 38 2 66 11 110
38 60 36 82 42 195 52 38 4 107 19 155 36 169 57 201 34 148 -107 -30 -80 -26
-109 13 -99 25 5 54 24 250 158 92 63 124 67 172 22 37 -34 60 -41 185 -51 86
-8 145 7 197 49 21 17 48 32 60 34 19 3 64 -24 101 -61 8 -8 43 -25 78 -36 35
-12 69 -25 74 -30 6 -4 21 -10 36 -13 18 -5 32 -22 54 -66 26 -56 33 -62 102
-97 l73 -36 283 4 c281 5 283 5 437 41 85 20 171 39 190 42 19 3 50 8 68 11
55 10 101 13 281 19 l175 5 71 45 c47 29 88 46 117 50 52 6 68 -5 132 -97 32
-45 53 -62 115 -94 63 -32 87 -39 148 -43 92 -4 119 3 127 32 3 13 17 36 30
50 20 21 34 27 68 27 64 0 102 -29 137 -106 22 -48 26 -49 196 -59 116 -7 142
-9 445 -32 125 -10 525 -10 619 -1 69 7 78 6 135 -22 63 -30 79 -33 301 -46
238 -15 234 -16 305 40 73 56 100 66 172 61 67 -5 109 11 192 70 56 40 75 48
109 47 43 -1 111 -24 122 -41 3 -5 30 -21 61 -35 63 -29 78 -40 181 -133 109
-99 142 -105 143 -25 0 41 -19 79 -78 151 -58 72 -112 156 -112 176 0 8 8 15
18 15 33 0 81 -39 119 -97 46 -70 65 -76 87 -30 35 76 -27 204 -163 336 -68
65 -105 84 -197 103 -80 17 -125 17 -204 0 -30 -6 -89 -13 -130 -16 -41 -3
-91 -10 -110 -16 -19 -5 -55 -10 -80 -9 -25 1 -57 -4 -72 -9 -15 -7 -39 -8
-55 -3 -44 12 -93 2 -153 -31 -175 -99 -186 -102 -253 -65 -23 12 -57 24 -75
26 -19 1 -59 11 -89 22 -75 25 -105 24 -133 -6 -28 -30 -40 -31 -112 -6 -38
13 -86 19 -154 20 -134 2 -240 13 -369 37 -11 2 -49 9 -85 15 -36 6 -76 17
-90 24 -37 19 -137 124 -155 162 l-16 33 -112 1 c-62 1 -115 1 -118 1 -4 -1
-37 7 -73 18 -123 35 -228 112 -268 196 -34 72 -158 214 -265 302 -41 34 -63
61 -68 81 -9 41 -75 133 -172 237 -45 49 -115 134 -156 189 -41 55 -109 138
-151 185 -104 116 -211 244 -271 324 -27 37 -70 93 -95 125 -25 32 -59 78 -77
102 -17 24 -87 117 -155 205 -471 617 -616 816 -726 996 l-41 66 23 25 c24 26
63 37 213 58 70 9 97 19 170 62 177 101 292 144 355 132 95 -19 146 -17 204 8
33 15 85 31 117 36 65 12 153 49 467 198 112 53 141 63 168 58 28 -5 46 1 104
35 39 23 133 74 209 112 l140 70 97 3 c112 4 148 10 217 32 47 15 238 105 260
123 6 4 98 56 205 115 107 59 204 117 214 128 31 32 180 125 258 161 70 32
244 150 415 282 45 35 96 69 115 77 51 22 163 121 388 341 91 89 140 130 180
148 121 55 445 414 820 908 36 47 67 87 70 90 3 3 21 25 40 50 18 25 59 76 89
115 31 38 59 74 64 80 4 5 48 61 97 124 119 150 154 203 308 471 71 124 143
249 161 279 197 330 563 1219 626 1521 2 8 23 94 48 190 24 96 47 191 51 210
3 19 8 46 11 60 3 14 7 56 10 95 4 38 19 122 35 185 26 106 34 146 46 239 3
19 14 56 24 83 46 113 58 147 78 213 18 61 34 130 47 200 13 64 17 119 21 290
4 157 9 201 27 255 29 90 27 71 31 320 3 169 0 242 -11 295 -13 62 -13 73 1
96 8 14 14 35 12 45 -2 10 -10 46 -17 80 -11 53 -10 66 4 102 16 40 17 88 3
197 -2 17 -8 62 -12 100 -4 39 -8 72 -9 75 -1 3 -4 19 -8 35 -4 17 -9 39 -11
50 -5 25 -18 75 -57 235 -21 83 -31 148 -31 193 1 48 -5 84 -20 120 -11 29
-29 93 -39 142 -10 50 -27 131 -38 180 -22 95 -20 131 6 171 15 23 14 28 -16
93 -37 81 -44 133 -25 180 8 18 14 42 14 53 0 24 -35 94 -62 122 -30 33 -54
76 -73 136 -10 30 -32 77 -50 105 -17 27 -46 80 -64 116 -29 62 -35 68 -85 89
-79 32 -127 78 -189 182 -65 110 -80 146 -103 253 -9 44 -24 96 -32 115 -8 19
-16 58 -18 85 -9 110 -15 140 -40 183 -19 32 -28 63 -30 106 -8 147 -14 223
-19 248 -3 17 2 41 13 62 16 29 19 54 17 158 -3 124 -4 140 -29 283 -16 91
-13 116 19 190 14 30 33 96 44 147 11 51 26 114 35 139 9 25 18 61 20 80 3 19
8 56 11 84 9 64 27 98 61 114 15 6 83 23 151 36 204 40 352 89 503 167 220
115 613 308 626 308 17 0 337 168 419 220 565 356 532 333 520 370 -16 51 -81
96 -277 196 -117 60 -201 90 -273 99 -32 4 -68 9 -80 11 -139 29 -640 24 -865
-9 -187 -28 -246 -41 -459 -99 -146 -40 -213 -55 -286 -64 -22 -3 -46 -7 -54
-10 -8 -3 -29 -7 -46 -10 -18 -3 -70 -18 -116 -35 -127 -46 -172 -58 -194 -54
-11 2 -25 4 -32 4 -11 1 -32 22 -164 165 -101 109 -369 311 -551 414 -59 33
-133 78 -165 100 -74 50 -124 75 -303 152 -80 34 -163 70 -185 80 -158 73
-286 113 -495 156 -68 13 -128 25 -154 30 -16 3 -32 6 -35 8 -3 2 -35 7 -71
11 -36 4 -68 9 -71 10 -3 2 -37 7 -75 10 -38 4 -80 8 -94 11 -14 2 -108 6
-210 9 -102 3 -219 10 -261 16 -66 8 -193 11 -201 4z m-4863 -15628 c119 -31
140 -35 225 -42 161 -12 253 -21 257 -24 1 0 -4 -16 -12 -35 -13 -31 -13 -37
1 -50 18 -18 12 -18 317 -20 l228 -1 19 -25 c11 -14 20 -29 20 -33 0 -23 50
-73 122 -127 107 -78 188 -158 413 -404 9 -10 289 -346 334 -401 49 -60 236
-301 287 -370 32 -44 61 -82 64 -85 3 -3 30 -39 60 -80 30 -41 95 -127 146
-190 50 -63 171 -236 269 -385 97 -148 198 -292 224 -321 27 -29 53 -70 60
-95 8 -24 24 -62 36 -84 12 -22 25 -57 28 -78 4 -23 24 -62 52 -99 54 -71 70
-107 87 -188 14 -71 17 -67 -98 -146 l-86 -59 -105 -1 c-98 0 -210 9 -260 21
-13 3 -37 18 -55 34 -18 15 -46 35 -62 43 -25 13 -32 13 -58 0 -24 -12 -57
-13 -165 -9 -74 4 -137 8 -141 11 -4 2 -45 7 -92 11 -121 9 -154 18 -199 54
-53 43 -141 80 -291 126 -204 62 -250 88 -250 140 0 19 -9 31 -31 43 -59 32
-76 51 -82 88 -6 36 -43 89 -127 177 -25 27 -66 71 -93 99 -26 28 -71 87 -100
132 -46 69 -137 197 -165 231 -4 6 -20 35 -34 65 -14 30 -49 103 -77 162 -28
59 -51 110 -51 112 0 6 -80 140 -127 213 -23 34 -52 91 -66 125 -14 35 -50
108 -81 162 -54 95 -112 211 -171 341 -57 127 -79 171 -95 195 -29 42 -95 178
-145 300 -26 63 -55 133 -65 155 -9 22 -23 58 -30 80 -7 22 -16 45 -20 50 -15
21 -62 176 -57 190 12 30 107 27 242 -8z"/>
<path d="M10536 13215 c-24 -25 -29 -66 -11 -72 13 -4 49 42 59 75 10 31 -18
29 -48 -3z"/>
</g>
</svg>
